<svg width="48" height="48" viewBox="0 0 48 48" fill="none" xmlns="http://www.w3.org/2000/svg">
<path fill-rule="evenodd" clip-rule="evenodd" d="M12 32C9.79086 32 8 33.7909 8 36C8 38.2091 9.79086 40 12 40C14.2091 40 16 38.2091 16 36C16 33.7909 14.2091 32 12 32ZM4 36C4 31.5817 7.58172 28 12 28C16.4183 28 20 31.5817 20 36C20 40.4183 16.4183 44 12 44C7.58172 44 4 40.4183 4 36Z" fill="#068EF9"/>
<path fill-rule="evenodd" clip-rule="evenodd" d="M36 32C33.7909 32 32 33.7909 32 36C32 38.2091 33.7909 40 36 40C38.2091 40 40 38.2091 40 36C40 33.7909 38.2091 32 36 32ZM28 36C28 31.5817 31.5817 28 36 28C40.4183 28 44 31.5817 44 36C44 40.4183 40.4183 44 36 44C31.5817 44 28 40.4183 28 36Z" fill="#068EF9"/>
<path fill-rule="evenodd" clip-rule="evenodd" d="M16 6C16 4.89543 16.8954 4 18 4H27.4415L37.8974 35.3675C38.2467 36.4154 37.6803 37.5481 36.6325 37.8974C35.5846 38.2467 34.4519 37.6803 34.1026 36.6325L24.5585 8H18C16.8954 8 16 7.10457 16 6Z" fill="#068EF9"/>
<path fill-rule="evenodd" clip-rule="evenodd" d="M32.1123 21.3379C33.0303 21.9522 33.2765 23.1944 32.6621 24.1123L23.3681 38H12C10.8954 38 10 37.1046 10 36C10 34.8954 10.8954 34 12 34H21.2319L29.3379 21.8876C29.9522 20.9697 31.1944 20.7235 32.1123 21.3379Z" fill="#068EF9"/>
</svg>
