<svg width="24" height="24" viewBox="0 0 24 24" fill="none" xmlns="http://www.w3.org/2000/svg">
<path fill-rule="evenodd" clip-rule="evenodd" d="M6 16C4.89543 16 4 16.8954 4 18C4 19.1046 4.89543 20 6 20C7.10457 20 8 19.1046 8 18C8 16.8954 7.10457 16 6 16ZM2 18C2 15.7909 3.79086 14 6 14C8.20914 14 10 15.7909 10 18C10 20.2091 8.20914 22 6 22C3.79086 22 2 20.2091 2 18Z" fill="#5336C3"/>
<path fill-rule="evenodd" clip-rule="evenodd" d="M18 16C16.8954 16 16 16.8954 16 18C16 19.1046 16.8954 20 18 20C19.1046 20 20 19.1046 20 18C20 16.8954 19.1046 16 18 16ZM14 18C14 15.7909 15.7909 14 18 14C20.2091 14 22 15.7909 22 18C22 20.2091 20.2091 22 18 22C15.7909 22 14 20.2091 14 18Z" fill="#5336C3"/>
<path fill-rule="evenodd" clip-rule="evenodd" d="M8 3C8 2.44772 8.44772 2 9 2H13.7208L18.9487 17.6838C19.1233 18.2077 18.8402 18.774 18.3162 18.9487C17.7923 19.1233 17.226 18.8402 17.0513 18.3162L12.2792 4H9C8.44772 4 8 3.55228 8 3Z" fill="#5336C3"/>
<path fill-rule="evenodd" clip-rule="evenodd" d="M16.0562 10.6689C16.5152 10.9761 16.6382 11.5972 16.3311 12.0562L11.684 19H6C5.44772 19 5 18.5523 5 18C5 17.4477 5.44772 17 6 17H10.616L14.6689 10.9438C14.9761 10.4848 15.5972 10.3618 16.0562 10.6689Z" fill="#5336C3"/>
</svg>
